<mxfile host="Electron" agent="Mozilla/5.0 (X11; Linux x86_64) AppleWebKit/537.36 (KHTML, like Gecko) draw.io/28.0.6 Chrome/138.0.7204.100 Electron/37.2.3 Safari/537.36" version="28.0.6">
  <diagram name="Page-1" id="BNZpRGLDPGArAyAnGxoi">
    <mxGraphModel dx="2020" dy="843" grid="1" gridSize="10" guides="1" tooltips="1" connect="1" arrows="1" fold="1" page="1" pageScale="1" pageWidth="850" pageHeight="1100" math="0" shadow="0">
      <root>
        <mxCell id="0" />
        <mxCell id="1" parent="0" />
        <mxCell id="ZAgQJ0GjTejubRGfbuS--8" style="edgeStyle=orthogonalEdgeStyle;rounded=0;orthogonalLoop=1;jettySize=auto;html=1;exitX=1;exitY=0.5;exitDx=0;exitDy=0;entryX=0;entryY=0.5;entryDx=0;entryDy=0;" edge="1" parent="1" source="ZAgQJ0GjTejubRGfbuS--1" target="ZAgQJ0GjTejubRGfbuS--2">
          <mxGeometry relative="1" as="geometry" />
        </mxCell>
        <mxCell id="ZAgQJ0GjTejubRGfbuS--1" value="&lt;font style=&quot;font-size: 30px;&quot;&gt;1&lt;/font&gt;" style="ellipse;whiteSpace=wrap;html=1;aspect=fixed;strokeWidth=3;" vertex="1" parent="1">
          <mxGeometry x="100" y="100" width="80" height="80" as="geometry" />
        </mxCell>
        <mxCell id="ZAgQJ0GjTejubRGfbuS--9" style="edgeStyle=orthogonalEdgeStyle;rounded=0;orthogonalLoop=1;jettySize=auto;html=1;exitX=1;exitY=0.5;exitDx=0;exitDy=0;entryX=0;entryY=0.5;entryDx=0;entryDy=0;" edge="1" parent="1" source="ZAgQJ0GjTejubRGfbuS--2" target="ZAgQJ0GjTejubRGfbuS--3">
          <mxGeometry relative="1" as="geometry" />
        </mxCell>
        <mxCell id="ZAgQJ0GjTejubRGfbuS--2" value="&lt;font style=&quot;font-size: 30px;&quot;&gt;2&lt;/font&gt;" style="ellipse;whiteSpace=wrap;html=1;aspect=fixed;strokeWidth=3;gradientColor=none;gradientDirection=radial;shadow=0;" vertex="1" parent="1">
          <mxGeometry x="220" y="100" width="80" height="80" as="geometry" />
        </mxCell>
        <mxCell id="ZAgQJ0GjTejubRGfbuS--10" style="edgeStyle=orthogonalEdgeStyle;rounded=0;orthogonalLoop=1;jettySize=auto;html=1;exitX=1;exitY=0.5;exitDx=0;exitDy=0;entryX=0;entryY=0.5;entryDx=0;entryDy=0;" edge="1" parent="1" source="ZAgQJ0GjTejubRGfbuS--3" target="ZAgQJ0GjTejubRGfbuS--4">
          <mxGeometry relative="1" as="geometry" />
        </mxCell>
        <mxCell id="ZAgQJ0GjTejubRGfbuS--3" value="&lt;font style=&quot;font-size: 30px;&quot;&gt;3&lt;/font&gt;" style="ellipse;whiteSpace=wrap;html=1;aspect=fixed;strokeWidth=3;fillColor=#dae8fc;strokeColor=#6c8ebf;" vertex="1" parent="1">
          <mxGeometry x="345" y="100" width="80" height="80" as="geometry" />
        </mxCell>
        <mxCell id="ZAgQJ0GjTejubRGfbuS--11" style="edgeStyle=orthogonalEdgeStyle;rounded=0;orthogonalLoop=1;jettySize=auto;html=1;exitX=1;exitY=0.5;exitDx=0;exitDy=0;entryX=0;entryY=0.5;entryDx=0;entryDy=0;" edge="1" parent="1" source="ZAgQJ0GjTejubRGfbuS--4" target="ZAgQJ0GjTejubRGfbuS--5">
          <mxGeometry relative="1" as="geometry" />
        </mxCell>
        <mxCell id="ZAgQJ0GjTejubRGfbuS--4" value="&lt;font style=&quot;font-size: 30px;&quot;&gt;4&lt;/font&gt;" style="ellipse;whiteSpace=wrap;html=1;aspect=fixed;strokeWidth=3;fillColor=#dae8fc;strokeColor=#6c8ebf;" vertex="1" parent="1">
          <mxGeometry x="470" y="100" width="80" height="80" as="geometry" />
        </mxCell>
        <mxCell id="ZAgQJ0GjTejubRGfbuS--12" style="edgeStyle=orthogonalEdgeStyle;rounded=0;orthogonalLoop=1;jettySize=auto;html=1;exitX=1;exitY=0.5;exitDx=0;exitDy=0;entryX=0;entryY=0.5;entryDx=0;entryDy=0;" edge="1" parent="1" source="ZAgQJ0GjTejubRGfbuS--5" target="ZAgQJ0GjTejubRGfbuS--6">
          <mxGeometry relative="1" as="geometry" />
        </mxCell>
        <mxCell id="ZAgQJ0GjTejubRGfbuS--5" value="&lt;font style=&quot;font-size: 30px;&quot;&gt;5&lt;/font&gt;" style="ellipse;whiteSpace=wrap;html=1;aspect=fixed;strokeWidth=3;fillColor=#dae8fc;strokeColor=#6c8ebf;" vertex="1" parent="1">
          <mxGeometry x="600" y="100" width="80" height="80" as="geometry" />
        </mxCell>
        <mxCell id="ZAgQJ0GjTejubRGfbuS--13" style="edgeStyle=orthogonalEdgeStyle;rounded=0;orthogonalLoop=1;jettySize=auto;html=1;exitX=1;exitY=0.5;exitDx=0;exitDy=0;entryX=0;entryY=0.5;entryDx=0;entryDy=0;" edge="1" parent="1" source="ZAgQJ0GjTejubRGfbuS--6" target="ZAgQJ0GjTejubRGfbuS--7">
          <mxGeometry relative="1" as="geometry" />
        </mxCell>
        <mxCell id="ZAgQJ0GjTejubRGfbuS--6" value="&lt;font style=&quot;font-size: 30px;&quot;&gt;6&lt;/font&gt;" style="ellipse;whiteSpace=wrap;html=1;aspect=fixed;strokeWidth=3;" vertex="1" parent="1">
          <mxGeometry x="730" y="100" width="80" height="80" as="geometry" />
        </mxCell>
        <mxCell id="ZAgQJ0GjTejubRGfbuS--7" value="&lt;font style=&quot;font-size: 30px;&quot;&gt;7&lt;/font&gt;" style="ellipse;whiteSpace=wrap;html=1;aspect=fixed;strokeWidth=3;" vertex="1" parent="1">
          <mxGeometry x="860" y="100" width="80" height="80" as="geometry" />
        </mxCell>
        <mxCell id="ZAgQJ0GjTejubRGfbuS--14" style="edgeStyle=orthogonalEdgeStyle;rounded=0;orthogonalLoop=1;jettySize=auto;html=1;exitX=1;exitY=0.5;exitDx=0;exitDy=0;entryX=0;entryY=0.5;entryDx=0;entryDy=0;" edge="1" source="ZAgQJ0GjTejubRGfbuS--15" target="ZAgQJ0GjTejubRGfbuS--17" parent="1">
          <mxGeometry relative="1" as="geometry" />
        </mxCell>
        <mxCell id="ZAgQJ0GjTejubRGfbuS--15" value="&lt;font style=&quot;font-size: 30px;&quot;&gt;1&lt;/font&gt;" style="ellipse;whiteSpace=wrap;html=1;aspect=fixed;strokeWidth=3;" vertex="1" parent="1">
          <mxGeometry x="100" y="270" width="80" height="80" as="geometry" />
        </mxCell>
        <mxCell id="ZAgQJ0GjTejubRGfbuS--17" value="&lt;font style=&quot;font-size: 30px;&quot;&gt;2&lt;/font&gt;" style="ellipse;whiteSpace=wrap;html=1;aspect=fixed;strokeWidth=3;gradientColor=none;gradientDirection=radial;shadow=0;" vertex="1" parent="1">
          <mxGeometry x="220" y="270" width="80" height="80" as="geometry" />
        </mxCell>
        <mxCell id="ZAgQJ0GjTejubRGfbuS--18" style="edgeStyle=orthogonalEdgeStyle;rounded=0;orthogonalLoop=1;jettySize=auto;html=1;exitX=1;exitY=0.5;exitDx=0;exitDy=0;entryX=0;entryY=0.5;entryDx=0;entryDy=0;" edge="1" source="ZAgQJ0GjTejubRGfbuS--19" target="ZAgQJ0GjTejubRGfbuS--21" parent="1">
          <mxGeometry relative="1" as="geometry" />
        </mxCell>
        <mxCell id="ZAgQJ0GjTejubRGfbuS--19" value="&lt;font style=&quot;font-size: 30px;&quot;&gt;3&lt;/font&gt;" style="ellipse;whiteSpace=wrap;html=1;aspect=fixed;strokeWidth=3;fillColor=#dae8fc;strokeColor=#6c8ebf;" vertex="1" parent="1">
          <mxGeometry x="360" y="270" width="80" height="80" as="geometry" />
        </mxCell>
        <mxCell id="ZAgQJ0GjTejubRGfbuS--20" style="edgeStyle=orthogonalEdgeStyle;rounded=0;orthogonalLoop=1;jettySize=auto;html=1;exitX=1;exitY=0.5;exitDx=0;exitDy=0;entryX=0;entryY=0.5;entryDx=0;entryDy=0;" edge="1" source="ZAgQJ0GjTejubRGfbuS--21" target="ZAgQJ0GjTejubRGfbuS--23" parent="1">
          <mxGeometry relative="1" as="geometry" />
        </mxCell>
        <mxCell id="ZAgQJ0GjTejubRGfbuS--21" value="&lt;font style=&quot;font-size: 30px;&quot;&gt;4&lt;/font&gt;" style="ellipse;whiteSpace=wrap;html=1;aspect=fixed;strokeWidth=3;fillColor=#dae8fc;strokeColor=#6c8ebf;" vertex="1" parent="1">
          <mxGeometry x="485" y="270" width="80" height="80" as="geometry" />
        </mxCell>
        <mxCell id="ZAgQJ0GjTejubRGfbuS--22" style="edgeStyle=orthogonalEdgeStyle;rounded=0;orthogonalLoop=1;jettySize=auto;html=1;exitX=1;exitY=0.5;exitDx=0;exitDy=0;entryX=0;entryY=0.5;entryDx=0;entryDy=0;" edge="1" source="ZAgQJ0GjTejubRGfbuS--23" target="ZAgQJ0GjTejubRGfbuS--25" parent="1">
          <mxGeometry relative="1" as="geometry" />
        </mxCell>
        <mxCell id="ZAgQJ0GjTejubRGfbuS--23" value="&lt;font style=&quot;font-size: 30px;&quot;&gt;5&lt;/font&gt;" style="ellipse;whiteSpace=wrap;html=1;aspect=fixed;strokeWidth=3;fillColor=#dae8fc;strokeColor=#6c8ebf;" vertex="1" parent="1">
          <mxGeometry x="615" y="270" width="80" height="80" as="geometry" />
        </mxCell>
        <mxCell id="ZAgQJ0GjTejubRGfbuS--24" style="edgeStyle=orthogonalEdgeStyle;rounded=0;orthogonalLoop=1;jettySize=auto;html=1;exitX=1;exitY=0.5;exitDx=0;exitDy=0;entryX=0;entryY=0.5;entryDx=0;entryDy=0;" edge="1" source="ZAgQJ0GjTejubRGfbuS--25" target="ZAgQJ0GjTejubRGfbuS--26" parent="1">
          <mxGeometry relative="1" as="geometry" />
        </mxCell>
        <mxCell id="ZAgQJ0GjTejubRGfbuS--25" value="&lt;font style=&quot;font-size: 30px;&quot;&gt;6&lt;/font&gt;" style="ellipse;whiteSpace=wrap;html=1;aspect=fixed;strokeWidth=3;" vertex="1" parent="1">
          <mxGeometry x="745" y="270" width="80" height="80" as="geometry" />
        </mxCell>
        <mxCell id="ZAgQJ0GjTejubRGfbuS--26" value="&lt;font style=&quot;font-size: 30px;&quot;&gt;7&lt;/font&gt;" style="ellipse;whiteSpace=wrap;html=1;aspect=fixed;strokeWidth=3;" vertex="1" parent="1">
          <mxGeometry x="875" y="270" width="80" height="80" as="geometry" />
        </mxCell>
        <mxCell id="ZAgQJ0GjTejubRGfbuS--27" style="edgeStyle=orthogonalEdgeStyle;rounded=0;orthogonalLoop=1;jettySize=auto;html=1;exitX=1;exitY=0.5;exitDx=0;exitDy=0;entryX=0;entryY=0.5;entryDx=0;entryDy=0;" edge="1" source="ZAgQJ0GjTejubRGfbuS--28" target="ZAgQJ0GjTejubRGfbuS--29" parent="1">
          <mxGeometry relative="1" as="geometry" />
        </mxCell>
        <mxCell id="ZAgQJ0GjTejubRGfbuS--28" value="&lt;font style=&quot;font-size: 30px;&quot;&gt;1&lt;/font&gt;" style="ellipse;whiteSpace=wrap;html=1;aspect=fixed;strokeWidth=3;" vertex="1" parent="1">
          <mxGeometry x="100" y="370" width="80" height="80" as="geometry" />
        </mxCell>
        <mxCell id="ZAgQJ0GjTejubRGfbuS--29" value="&lt;font style=&quot;font-size: 30px;&quot;&gt;2&lt;/font&gt;" style="ellipse;whiteSpace=wrap;html=1;aspect=fixed;strokeWidth=3;gradientColor=none;gradientDirection=radial;shadow=0;" vertex="1" parent="1">
          <mxGeometry x="220" y="370" width="80" height="80" as="geometry" />
        </mxCell>
        <mxCell id="ZAgQJ0GjTejubRGfbuS--31" value="&lt;font style=&quot;font-size: 30px;&quot;&gt;3&lt;/font&gt;" style="ellipse;whiteSpace=wrap;html=1;aspect=fixed;strokeWidth=3;fillColor=#dae8fc;strokeColor=#6c8ebf;" vertex="1" parent="1">
          <mxGeometry x="360" y="370" width="80" height="80" as="geometry" />
        </mxCell>
        <mxCell id="ZAgQJ0GjTejubRGfbuS--39" style="edgeStyle=orthogonalEdgeStyle;rounded=0;orthogonalLoop=1;jettySize=auto;html=1;exitX=0;exitY=0.5;exitDx=0;exitDy=0;" edge="1" parent="1" source="ZAgQJ0GjTejubRGfbuS--33" target="ZAgQJ0GjTejubRGfbuS--31">
          <mxGeometry relative="1" as="geometry" />
        </mxCell>
        <mxCell id="ZAgQJ0GjTejubRGfbuS--33" value="&lt;font style=&quot;font-size: 30px;&quot;&gt;4&lt;/font&gt;" style="ellipse;whiteSpace=wrap;html=1;aspect=fixed;strokeWidth=3;fillColor=#dae8fc;strokeColor=#6c8ebf;" vertex="1" parent="1">
          <mxGeometry x="485" y="370" width="80" height="80" as="geometry" />
        </mxCell>
        <mxCell id="ZAgQJ0GjTejubRGfbuS--34" style="edgeStyle=orthogonalEdgeStyle;rounded=0;orthogonalLoop=1;jettySize=auto;html=1;exitX=1;exitY=0.5;exitDx=0;exitDy=0;entryX=0;entryY=0.5;entryDx=0;entryDy=0;" edge="1" source="ZAgQJ0GjTejubRGfbuS--35" target="ZAgQJ0GjTejubRGfbuS--37" parent="1">
          <mxGeometry relative="1" as="geometry" />
        </mxCell>
        <mxCell id="ZAgQJ0GjTejubRGfbuS--35" value="&lt;font style=&quot;font-size: 30px;&quot;&gt;5&lt;/font&gt;" style="ellipse;whiteSpace=wrap;html=1;aspect=fixed;strokeWidth=3;fillColor=#dae8fc;strokeColor=#6c8ebf;" vertex="1" parent="1">
          <mxGeometry x="615" y="370" width="80" height="80" as="geometry" />
        </mxCell>
        <mxCell id="ZAgQJ0GjTejubRGfbuS--36" style="edgeStyle=orthogonalEdgeStyle;rounded=0;orthogonalLoop=1;jettySize=auto;html=1;exitX=1;exitY=0.5;exitDx=0;exitDy=0;entryX=0;entryY=0.5;entryDx=0;entryDy=0;" edge="1" source="ZAgQJ0GjTejubRGfbuS--37" target="ZAgQJ0GjTejubRGfbuS--38" parent="1">
          <mxGeometry relative="1" as="geometry" />
        </mxCell>
        <mxCell id="ZAgQJ0GjTejubRGfbuS--37" value="&lt;font style=&quot;font-size: 30px;&quot;&gt;6&lt;/font&gt;" style="ellipse;whiteSpace=wrap;html=1;aspect=fixed;strokeWidth=3;" vertex="1" parent="1">
          <mxGeometry x="745" y="370" width="80" height="80" as="geometry" />
        </mxCell>
        <mxCell id="ZAgQJ0GjTejubRGfbuS--38" value="&lt;font style=&quot;font-size: 30px;&quot;&gt;7&lt;/font&gt;" style="ellipse;whiteSpace=wrap;html=1;aspect=fixed;strokeWidth=3;" vertex="1" parent="1">
          <mxGeometry x="875" y="370" width="80" height="80" as="geometry" />
        </mxCell>
        <mxCell id="ZAgQJ0GjTejubRGfbuS--40" style="edgeStyle=orthogonalEdgeStyle;rounded=0;orthogonalLoop=1;jettySize=auto;html=1;exitX=1;exitY=0.5;exitDx=0;exitDy=0;entryX=0;entryY=0.5;entryDx=0;entryDy=0;" edge="1" source="ZAgQJ0GjTejubRGfbuS--41" target="ZAgQJ0GjTejubRGfbuS--42" parent="1">
          <mxGeometry relative="1" as="geometry" />
        </mxCell>
        <mxCell id="ZAgQJ0GjTejubRGfbuS--41" value="&lt;font style=&quot;font-size: 30px;&quot;&gt;1&lt;/font&gt;" style="ellipse;whiteSpace=wrap;html=1;aspect=fixed;strokeWidth=3;" vertex="1" parent="1">
          <mxGeometry x="100" y="470" width="80" height="80" as="geometry" />
        </mxCell>
        <mxCell id="ZAgQJ0GjTejubRGfbuS--42" value="&lt;font style=&quot;font-size: 30px;&quot;&gt;2&lt;/font&gt;" style="ellipse;whiteSpace=wrap;html=1;aspect=fixed;strokeWidth=3;gradientColor=none;gradientDirection=radial;shadow=0;" vertex="1" parent="1">
          <mxGeometry x="220" y="470" width="80" height="80" as="geometry" />
        </mxCell>
        <mxCell id="ZAgQJ0GjTejubRGfbuS--43" value="&lt;font style=&quot;font-size: 30px;&quot;&gt;3&lt;/font&gt;" style="ellipse;whiteSpace=wrap;html=1;aspect=fixed;strokeWidth=3;fillColor=#dae8fc;strokeColor=#6c8ebf;" vertex="1" parent="1">
          <mxGeometry x="360" y="470" width="80" height="80" as="geometry" />
        </mxCell>
        <mxCell id="ZAgQJ0GjTejubRGfbuS--44" style="edgeStyle=orthogonalEdgeStyle;rounded=0;orthogonalLoop=1;jettySize=auto;html=1;exitX=0;exitY=0.5;exitDx=0;exitDy=0;" edge="1" source="ZAgQJ0GjTejubRGfbuS--45" target="ZAgQJ0GjTejubRGfbuS--43" parent="1">
          <mxGeometry relative="1" as="geometry" />
        </mxCell>
        <mxCell id="ZAgQJ0GjTejubRGfbuS--45" value="&lt;font style=&quot;font-size: 30px;&quot;&gt;4&lt;/font&gt;" style="ellipse;whiteSpace=wrap;html=1;aspect=fixed;strokeWidth=3;fillColor=#dae8fc;strokeColor=#6c8ebf;" vertex="1" parent="1">
          <mxGeometry x="485" y="470" width="80" height="80" as="geometry" />
        </mxCell>
        <mxCell id="ZAgQJ0GjTejubRGfbuS--51" style="edgeStyle=orthogonalEdgeStyle;rounded=0;orthogonalLoop=1;jettySize=auto;html=1;exitX=0;exitY=0.5;exitDx=0;exitDy=0;entryX=1;entryY=0.5;entryDx=0;entryDy=0;" edge="1" parent="1" source="ZAgQJ0GjTejubRGfbuS--47" target="ZAgQJ0GjTejubRGfbuS--45">
          <mxGeometry relative="1" as="geometry" />
        </mxCell>
        <mxCell id="ZAgQJ0GjTejubRGfbuS--47" value="&lt;font style=&quot;font-size: 30px;&quot;&gt;5&lt;/font&gt;" style="ellipse;whiteSpace=wrap;html=1;aspect=fixed;strokeWidth=3;fillColor=#dae8fc;strokeColor=#6c8ebf;" vertex="1" parent="1">
          <mxGeometry x="615" y="470" width="80" height="80" as="geometry" />
        </mxCell>
        <mxCell id="ZAgQJ0GjTejubRGfbuS--48" style="edgeStyle=orthogonalEdgeStyle;rounded=0;orthogonalLoop=1;jettySize=auto;html=1;exitX=1;exitY=0.5;exitDx=0;exitDy=0;entryX=0;entryY=0.5;entryDx=0;entryDy=0;" edge="1" source="ZAgQJ0GjTejubRGfbuS--49" target="ZAgQJ0GjTejubRGfbuS--50" parent="1">
          <mxGeometry relative="1" as="geometry" />
        </mxCell>
        <mxCell id="ZAgQJ0GjTejubRGfbuS--49" value="&lt;font style=&quot;font-size: 30px;&quot;&gt;6&lt;/font&gt;" style="ellipse;whiteSpace=wrap;html=1;aspect=fixed;strokeWidth=3;" vertex="1" parent="1">
          <mxGeometry x="745" y="470" width="80" height="80" as="geometry" />
        </mxCell>
        <mxCell id="ZAgQJ0GjTejubRGfbuS--50" value="&lt;font style=&quot;font-size: 30px;&quot;&gt;7&lt;/font&gt;" style="ellipse;whiteSpace=wrap;html=1;aspect=fixed;strokeWidth=3;" vertex="1" parent="1">
          <mxGeometry x="875" y="470" width="80" height="80" as="geometry" />
        </mxCell>
        <mxCell id="ZAgQJ0GjTejubRGfbuS--52" style="edgeStyle=orthogonalEdgeStyle;rounded=0;orthogonalLoop=1;jettySize=auto;html=1;exitX=1;exitY=0.5;exitDx=0;exitDy=0;entryX=0;entryY=0.5;entryDx=0;entryDy=0;" edge="1" source="ZAgQJ0GjTejubRGfbuS--53" target="ZAgQJ0GjTejubRGfbuS--54" parent="1">
          <mxGeometry relative="1" as="geometry" />
        </mxCell>
        <mxCell id="ZAgQJ0GjTejubRGfbuS--53" value="&lt;font style=&quot;font-size: 30px;&quot;&gt;1&lt;/font&gt;" style="ellipse;whiteSpace=wrap;html=1;aspect=fixed;strokeWidth=3;" vertex="1" parent="1">
          <mxGeometry x="97.5" y="620" width="80" height="80" as="geometry" />
        </mxCell>
        <mxCell id="ZAgQJ0GjTejubRGfbuS--64" style="edgeStyle=orthogonalEdgeStyle;rounded=0;orthogonalLoop=1;jettySize=auto;html=1;exitX=1;exitY=0.5;exitDx=0;exitDy=0;" edge="1" parent="1" source="ZAgQJ0GjTejubRGfbuS--54" target="ZAgQJ0GjTejubRGfbuS--59">
          <mxGeometry relative="1" as="geometry">
            <mxPoint x="720" y="660" as="targetPoint" />
            <Array as="points">
              <mxPoint x="310" y="660" />
              <mxPoint x="310" y="730" />
              <mxPoint x="721" y="730" />
              <mxPoint x="721" y="660" />
            </Array>
          </mxGeometry>
        </mxCell>
        <mxCell id="ZAgQJ0GjTejubRGfbuS--54" value="&lt;font style=&quot;font-size: 30px;&quot;&gt;2&lt;/font&gt;" style="ellipse;whiteSpace=wrap;html=1;aspect=fixed;strokeWidth=3;gradientColor=none;gradientDirection=radial;shadow=0;" vertex="1" parent="1">
          <mxGeometry x="217.5" y="620" width="80" height="80" as="geometry" />
        </mxCell>
        <mxCell id="ZAgQJ0GjTejubRGfbuS--77" style="edgeStyle=orthogonalEdgeStyle;rounded=0;orthogonalLoop=1;jettySize=auto;html=1;exitX=0.5;exitY=0;exitDx=0;exitDy=0;entryX=0.5;entryY=0;entryDx=0;entryDy=0;" edge="1" parent="1" source="ZAgQJ0GjTejubRGfbuS--55" target="ZAgQJ0GjTejubRGfbuS--61">
          <mxGeometry relative="1" as="geometry">
            <mxPoint x="740" y="590" as="targetPoint" />
            <Array as="points">
              <mxPoint x="398" y="600" />
              <mxPoint x="589" y="600" />
              <mxPoint x="589" y="580" />
              <mxPoint x="783" y="580" />
            </Array>
          </mxGeometry>
        </mxCell>
        <mxCell id="ZAgQJ0GjTejubRGfbuS--55" value="&lt;font style=&quot;font-size: 30px;&quot;&gt;3&lt;/font&gt;" style="ellipse;whiteSpace=wrap;html=1;aspect=fixed;strokeWidth=3;fillColor=#dae8fc;strokeColor=#6c8ebf;" vertex="1" parent="1">
          <mxGeometry x="357.5" y="620" width="80" height="80" as="geometry" />
        </mxCell>
        <mxCell id="ZAgQJ0GjTejubRGfbuS--56" style="edgeStyle=orthogonalEdgeStyle;rounded=0;orthogonalLoop=1;jettySize=auto;html=1;exitX=0;exitY=0.5;exitDx=0;exitDy=0;" edge="1" source="ZAgQJ0GjTejubRGfbuS--57" target="ZAgQJ0GjTejubRGfbuS--55" parent="1">
          <mxGeometry relative="1" as="geometry" />
        </mxCell>
        <mxCell id="ZAgQJ0GjTejubRGfbuS--57" value="&lt;font style=&quot;font-size: 30px;&quot;&gt;4&lt;/font&gt;" style="ellipse;whiteSpace=wrap;html=1;aspect=fixed;strokeWidth=3;fillColor=#dae8fc;strokeColor=#6c8ebf;" vertex="1" parent="1">
          <mxGeometry x="482.5" y="620" width="80" height="80" as="geometry" />
        </mxCell>
        <mxCell id="ZAgQJ0GjTejubRGfbuS--58" style="edgeStyle=orthogonalEdgeStyle;rounded=0;orthogonalLoop=1;jettySize=auto;html=1;exitX=0;exitY=0.5;exitDx=0;exitDy=0;entryX=1;entryY=0.5;entryDx=0;entryDy=0;" edge="1" source="ZAgQJ0GjTejubRGfbuS--59" target="ZAgQJ0GjTejubRGfbuS--57" parent="1">
          <mxGeometry relative="1" as="geometry" />
        </mxCell>
        <mxCell id="ZAgQJ0GjTejubRGfbuS--59" value="&lt;font style=&quot;font-size: 30px;&quot;&gt;5&lt;/font&gt;" style="ellipse;whiteSpace=wrap;html=1;aspect=fixed;strokeWidth=3;fillColor=#dae8fc;strokeColor=#6c8ebf;" vertex="1" parent="1">
          <mxGeometry x="612.5" y="620" width="80" height="80" as="geometry" />
        </mxCell>
        <mxCell id="ZAgQJ0GjTejubRGfbuS--60" style="edgeStyle=orthogonalEdgeStyle;rounded=0;orthogonalLoop=1;jettySize=auto;html=1;exitX=1;exitY=0.5;exitDx=0;exitDy=0;entryX=0;entryY=0.5;entryDx=0;entryDy=0;" edge="1" source="ZAgQJ0GjTejubRGfbuS--61" target="ZAgQJ0GjTejubRGfbuS--62" parent="1">
          <mxGeometry relative="1" as="geometry" />
        </mxCell>
        <mxCell id="ZAgQJ0GjTejubRGfbuS--61" value="&lt;font style=&quot;font-size: 30px;&quot;&gt;6&lt;/font&gt;" style="ellipse;whiteSpace=wrap;html=1;aspect=fixed;strokeWidth=3;" vertex="1" parent="1">
          <mxGeometry x="742.5" y="620" width="80" height="80" as="geometry" />
        </mxCell>
        <mxCell id="ZAgQJ0GjTejubRGfbuS--62" value="&lt;font style=&quot;font-size: 30px;&quot;&gt;7&lt;/font&gt;" style="ellipse;whiteSpace=wrap;html=1;aspect=fixed;strokeWidth=3;" vertex="1" parent="1">
          <mxGeometry x="872.5" y="620" width="80" height="80" as="geometry" />
        </mxCell>
      </root>
    </mxGraphModel>
  </diagram>
</mxfile>
